<svg width="24" height="24" viewBox="0 0 24 24" fill="none" xmlns="http://www.w3.org/2000/svg">
<path d="M10.6278 7.22588L9.61408 9.78381C9.58674 9.85281 9.52538 9.90214 9.45263 9.91362L7.01918 10.2976C6.85785 10.323 6.78676 10.5173 6.89293 10.6425L8.67402 12.743C8.71319 12.7891 8.73066 12.8502 8.72193 12.9103L8.30744 15.7685C8.28188 15.9447 8.47116 16.0713 8.62201 15.9789L10.7132 14.6982C10.7797 14.6575 10.8631 14.6575 10.9296 14.6982L13.0209 15.9789C13.1717 16.0713 13.361 15.9447 13.3354 15.7685L12.9209 12.9103C12.9122 12.8502 12.9297 12.7891 12.9689 12.743L14.7499 10.6425C14.8561 10.5172 14.785 10.323 14.6237 10.2976L12.1902 9.91362C12.1175 9.90214 12.0561 9.85281 12.0288 9.78381L11.0151 7.22588C10.9452 7.04943 10.6977 7.04943 10.6278 7.22588Z" fill="#46001E"/>
<path fill-rule="evenodd" clip-rule="evenodd" d="M10.5711 21.9951C6.26054 21.8254 3 17.2901 3 12C3 6.70993 6.26054 2.17464 10.5711 2.00492V2H13.1783C17.6125 2 21 6.60791 21 12C21 17.3921 17.6125 22 13.1783 22H10.5711V21.9951ZM4.04289 12C4.04289 6.92774 7.19221 3.05263 10.8217 3.05263C12.5453 3.0528 14.1612 3.92698 15.3823 5.38831C16.7321 7.01051 17.6004 9.35293 17.6004 12C17.6004 14.6471 16.7321 16.9895 15.3823 18.6117C14.1611 20.0732 12.5455 20.9474 10.8217 20.9474C7.19221 20.9474 4.04289 17.0723 4.04289 12Z" fill="#46001E"/>
</svg>
