<svg width="25" height="24" viewBox="0 0 25 24" fill="none" xmlns="http://www.w3.org/2000/svg">
<path fill-rule="evenodd" clip-rule="evenodd" d="M13.4379 2H10.8308V22H13.4379C17.8719 22 21.2593 17.3921 21.2593 12C21.2593 6.60791 17.8719 2 13.4379 2Z" fill="#E6B900"/>
<path fill-rule="evenodd" clip-rule="evenodd" d="M11.0807 2C6.64667 2 3.25928 6.60791 3.25928 12C3.25928 17.3921 6.64667 22 11.0807 22C15.5146 22 18.902 17.3921 18.902 12C18.902 6.60791 15.5146 2 11.0807 2Z" fill="#FFCF08"/>
<path d="M10.8865 7.22511C10.9564 7.04866 11.2039 7.04866 11.2738 7.22511L12.2875 9.78304C12.3148 9.85203 12.3762 9.90137 12.4489 9.91285L14.8823 10.2968C15.0436 10.3223 15.1147 10.5165 15.0085 10.6417L13.2275 12.7422C13.1883 12.7884 13.1709 12.8494 13.1796 12.9096L13.5941 15.7677C13.6196 15.9439 13.4303 16.0706 13.2795 15.9782L11.1883 14.6974C11.1218 14.6567 11.0384 14.6567 10.972 14.6974L8.8808 15.9782C8.72995 16.0706 8.54068 15.9439 8.56623 15.7677L8.98071 12.9096C8.98944 12.8494 8.97197 12.7884 8.9328 12.7422L7.15177 10.6417C7.0456 10.5165 7.1167 10.3223 7.27802 10.2968L9.71139 9.91285C9.78413 9.90137 9.84549 9.85203 9.87283 9.78304L10.8865 7.22511Z" fill="#CCA500"/>
</svg>
