<svg width="20" height="22" viewBox="0 0 20 22" fill="none" xmlns="http://www.w3.org/2000/svg">
<g clip-path="url(#clip0_673_6433)">
<rect opacity="0.01" width="1" height="4" fill="white"/>
</g>
<g clip-path="url(#clip1_673_6433)">
<path d="M10.7995 7.07606V6.27606H9.19947V7.07606H10.7995ZM9.99947 12H9.19947V12.4944L9.6417 12.7155L9.99947 12ZM12.9243 14.3568L13.6398 14.7146L14.3554 13.2835L13.6398 12.9257L12.9243 14.3568ZM17.406 12C17.406 16.0905 14.09 19.4065 9.99947 19.4065V21.0065C14.9736 21.0065 19.006 16.9741 19.006 12H17.406ZM9.99947 19.4065C5.90897 19.4065 2.59297 16.0905 2.59297 12H0.992969C0.992969 16.9741 5.02532 21.0065 9.99947 21.0065V19.4065ZM2.59297 12C2.59297 7.90946 5.90897 4.59346 9.99947 4.59346V2.99346C5.02532 2.99346 0.992969 7.02581 0.992969 12H2.59297ZM9.99947 4.59346C14.09 4.59346 17.406 7.90946 17.406 12H19.006C19.006 7.02581 14.9736 2.99346 9.99947 2.99346V4.59346ZM9.19947 7.07606V12H10.7995V7.07606H9.19947ZM9.6417 12.7155L12.9243 14.3568L13.6398 12.9257L10.3572 11.2844L9.6417 12.7155Z" fill="#1D1D1D"/>
</g>
<defs>
<clipPath id="clip0_673_6433">
<rect width="20" height="2" fill="white"/>
</clipPath>
<clipPath id="clip1_673_6433">
<rect width="20" height="20" fill="white" transform="translate(0 2)"/>
</clipPath>
</defs>
</svg>
