<svg width="16" height="16" viewBox="0 0 16 16" fill="none" xmlns="http://www.w3.org/2000/svg">
<path d="M4.91874 4.86781L2.57847 2.52753M6.49071 8.80487C4.88844 10.4071 2.82177 12.05 2.54464 12.3582C2.09454 12.8588 3.36295 14.122 3.86574 13.5552C4.16472 13.2182 5.67738 11.4968 7.43 9.74416M8.90469 6.3909C8.95553 6.34005 9.01509 6.2859 9.07657 6.21902C9.39983 5.86733 9.49101 5.59634 9.52348 4.53682C9.55594 3.4773 12.8155 1.52132 13.7653 2.39427C14.7151 3.26722 13.0431 6.57324 11.8578 6.66218C10.6724 6.75112 10.3998 6.74522 10.0687 7.10549C10.0159 7.1583 9.96466 7.22365 9.85105 7.33726M3.66713 1.43896L6.62879 4.22861C6.72922 4.67488 6.9863 5.87144 7.57037 6.48992L13.7807 12.5088C14.2526 12.9439 13.0352 14.0714 12.6266 13.6628C12.3442 13.3804 8.31207 9.26141 6.52086 7.53943C6.07724 7.15439 4.92849 6.7615 4.3709 6.68506L1.50586 3.60014" stroke="#1D1D1D" stroke-width="1.2"/>
</svg>
