<svg width="16" height="16" viewBox="0 0 16 16" fill="none" xmlns="http://www.w3.org/2000/svg">
<path d="M11.636 14.0002V14.6002C11.9674 14.6002 12.236 14.3315 12.236 14.0002H11.636ZM11.636 9.77794V9.17794H11.036V9.77794H11.636ZM4.36331 14.0002H3.76331C3.76331 14.3315 4.03194 14.6002 4.36331 14.6002V14.0002ZM4.36331 9.77794H4.96331V9.17794H4.36331V9.77794ZM4.56783 3.75296L4.52813 4.35164L4.9822 4.38176L5.13364 3.95262L4.56783 3.75296ZM11.4315 3.75296L10.8657 3.95262L11.0171 4.38176L11.4712 4.35164L11.4315 3.75296ZM12.236 14.0002V9.77794H11.036V14.0002H12.236ZM4.36331 14.6002H11.636V13.4002H4.36331V14.6002ZM3.76331 9.77794V14.0002H4.96331V9.77794H3.76331ZM0.733008 6.76207C0.733008 8.76176 2.36105 10.3779 4.36331 10.3779V9.17794C3.01839 9.17794 1.93301 8.09362 1.93301 6.76207H0.733008ZM4.36331 3.14619C2.36105 3.14619 0.733008 4.76238 0.733008 6.76207H1.93301C1.93301 5.43051 3.01839 4.34619 4.36331 4.34619V3.14619ZM4.60754 3.15427C4.52674 3.14891 4.4453 3.14619 4.36331 3.14619V4.34619C4.41878 4.34619 4.47374 4.34803 4.52813 4.35164L4.60754 3.15427ZM7.99967 0.733496C6.15305 0.733496 4.58181 1.91032 4.00203 3.55329L5.13364 3.95262C5.5484 2.77727 6.67464 1.9335 7.99967 1.9335V0.733496ZM11.9973 3.55329C11.4175 1.91032 9.8463 0.733496 7.99967 0.733496V1.9335C9.32471 1.9335 10.4509 2.77727 10.8657 3.95262L11.9973 3.55329ZM11.4712 4.35164C11.5256 4.34803 11.5806 4.34619 11.636 4.34619V3.14619C11.554 3.14619 11.4726 3.14891 11.3918 3.15427L11.4712 4.35164ZM11.636 4.34619C12.981 4.34619 14.0663 5.43051 14.0663 6.76207H15.2663C15.2663 4.76238 13.6383 3.14619 11.636 3.14619V4.34619ZM14.0663 6.76207C14.0663 8.09362 12.981 9.17794 11.636 9.17794V10.3779C13.6383 10.3779 15.2663 8.76176 15.2663 6.76207H14.0663Z" fill="#1D1D1D"/>
<line x1="4.66699" y1="11.4" x2="11.3337" y2="11.4" stroke="#1D1D1D" stroke-width="1.2"/>
</svg>
