<svg width="121" height="134" viewBox="0 0 121 134" fill="none" xmlns="http://www.w3.org/2000/svg">
<path d="M60.5 83.6667V97M27.0625 53.8587C30.2151 53.6667 34.1017 53.6667 39.1 53.6667H81.9C86.8982 53.6667 90.785 53.6667 93.9375 53.8587M27.0625 53.8587C23.1281 54.098 20.3368 54.6367 17.9543 55.8467C14.1793 57.764 11.1101 60.8233 9.18668 64.5867C7 68.8653 7 74.4653 7 85.6667V95C7 106.201 7 111.801 9.18668 116.08C11.1101 119.843 14.1793 122.903 17.9543 124.82C22.2459 127 27.8639 127 39.1 127H81.9C93.1363 127 98.7538 127 103.046 124.82C106.821 122.903 109.89 119.843 111.813 116.08C114 111.801 114 106.201 114 95V85.6667C114 74.4653 114 68.8653 111.813 64.5867C109.89 60.8233 106.821 57.764 103.046 55.8467C100.663 54.6367 97.8718 54.098 93.9375 53.8587M27.0625 53.8587V40.3333C27.0625 21.9239 42.033 7 60.5 7C78.9669 7 93.9375 21.9239 93.9375 40.3333V53.8587" stroke="#757575" stroke-width="14" stroke-linecap="round" stroke-linejoin="round"/>
</svg>
