<svg width="92" height="28" viewBox="0 0 92 28" fill="none" xmlns="http://www.w3.org/2000/svg">
<path d="M6.44554 0.312847C8.6471 0.312847 10.2784 0.886405 11.3394 2.03352C12.4269 3.18063 12.9707 4.8622 12.9707 7.07821V10.6369C12.9707 12.8529 12.4269 14.5345 11.3394 15.6816C10.2784 16.8287 8.6471 17.4022 6.44554 17.4022H4.3766V27.6872H0V0.312847H6.44554ZM4.3766 4.22346V13.4916H6.44554C7.13518 13.4916 7.66568 13.3091 8.03703 12.9441C8.40838 12.5791 8.59405 11.9013 8.59405 10.9106V6.80447C8.59405 5.81378 8.40838 5.13594 8.03703 4.77095C7.66568 4.40596 7.13518 4.22346 6.44554 4.22346H4.3766Z" fill="#FF3000"/>
<path d="M19.0165 21.3911C19.0165 22.3818 19.2154 23.0857 19.6133 23.5028C20.0377 23.8939 20.5947 24.0894 21.2843 24.0894C21.974 24.0894 22.5177 23.8939 22.9156 23.5028C23.34 23.0857 23.5522 22.3818 23.5522 21.3911V6.60894C23.5522 5.61825 23.34 4.92737 22.9156 4.53631C22.5177 4.11918 21.974 3.91061 21.2843 3.91061C20.5947 3.91061 20.0377 4.11918 19.6133 4.53631C19.2154 4.92737 19.0165 5.61825 19.0165 6.60894V21.3911ZM14.6399 6.88268C14.6399 4.66667 15.2101 2.97207 16.3507 1.79888C17.4913 0.599627 19.1358 0 21.2843 0C23.4328 0 25.0774 0.599627 26.2179 1.79888C27.3585 2.97207 27.9288 4.66667 27.9288 6.88268V21.1173C27.9288 23.3333 27.3585 25.041 26.2179 26.2402C25.0774 27.4134 23.4328 28 21.2843 28C19.1358 28 17.4913 27.4134 16.3507 26.2402C15.2101 25.041 14.6399 23.3333 14.6399 21.1173V6.88268Z" fill="#FF3000"/>
<path d="M43.4651 17.4804V21.1173C43.4651 23.3333 42.9081 25.041 41.794 26.2402C40.7065 27.4134 39.0885 28 36.94 28C34.7915 28 33.1602 27.4134 32.0462 26.2402C30.9586 25.041 30.4149 23.3333 30.4149 21.1173V6.88268C30.4149 4.66667 30.9586 2.97207 32.0462 1.79888C33.1602 0.599627 34.7915 0 36.94 0C39.0885 0 40.7065 0.599627 41.794 1.79888C42.9081 2.97207 43.4651 4.66667 43.4651 6.88268V9.5419H39.3272V6.60894C39.3272 5.61825 39.115 4.92737 38.6906 4.53631C38.2928 4.11918 37.749 3.91061 37.0594 3.91061C36.3697 3.91061 35.8127 4.11918 35.3883 4.53631C34.9904 4.92737 34.7915 5.61825 34.7915 6.60894V21.3911C34.7915 22.3818 34.9904 23.0726 35.3883 23.4637C35.8127 23.8547 36.3697 24.0503 37.0594 24.0503C37.749 24.0503 38.2928 23.8547 38.6906 23.4637C39.115 23.0726 39.3272 22.3818 39.3272 21.3911V17.4804H43.4651Z" fill="#FF3000"/>
<path d="M58.8127 17.4804V21.1173C58.8127 23.3333 58.2557 25.041 57.1417 26.2402C56.0542 27.4134 54.4361 28 52.2876 28C50.1391 28 48.5078 27.4134 47.3938 26.2402C46.3063 25.041 45.7625 23.3333 45.7625 21.1173V6.88268C45.7625 4.66667 46.3063 2.97207 47.3938 1.79888C48.5078 0.599627 50.1391 0 52.2876 0C54.4361 0 56.0542 0.599627 57.1417 1.79888C58.2557 2.97207 58.8127 4.66667 58.8127 6.88268V9.5419H54.6749V6.60894C54.6749 5.61825 54.4627 4.92737 54.0383 4.53631C53.6404 4.11918 53.0966 3.91061 52.407 3.91061C51.7173 3.91061 51.1603 4.11918 50.7359 4.53631C50.3381 4.92737 50.1391 5.61825 50.1391 6.60894V21.3911C50.1391 22.3818 50.3381 23.0726 50.7359 23.4637C51.1603 23.8547 51.7173 24.0503 52.407 24.0503C53.0966 24.0503 53.6404 23.8547 54.0383 23.4637C54.4627 23.0726 54.6749 22.3818 54.6749 21.3911V17.4804H58.8127Z" fill="#FF3000"/>
<path d="M65.9642 27.6872H61.4682V0.312847H65.3674V17.6369L66.9589 11.6145L70.5397 0.312847H75.354V27.6872H71.415V8.40782L69.6246 15.1341L65.9642 27.6872Z" fill="#FF3000"/>
<path d="M77.652 27.6872C77.8642 27.1657 77.9968 26.6574 78.0499 26.162C78.1029 25.6406 78.1295 25.041 78.1295 24.3631V20.1397C78.1295 18.7058 78.3284 17.4935 78.7263 16.5028C79.1507 15.486 79.9199 14.7561 81.0339 14.3128C79.1241 13.4264 78.1693 11.5754 78.1693 8.75978V6.60894C78.1693 4.49721 78.6732 2.91993 79.6812 1.87709C80.7156 0.834263 82.3734 0.312847 84.6546 0.312847H91.2593V27.6872H86.8827V16.5419H85.3708C84.3628 16.5419 83.6334 16.8026 83.1824 17.324C82.7315 17.8454 82.5061 18.7449 82.5061 20.0223V24.324C82.5061 24.8715 82.4928 25.3277 82.4663 25.6927C82.4663 26.0577 82.4398 26.3575 82.3867 26.5922C82.3602 26.8268 82.3204 27.0223 82.2673 27.1788C82.2143 27.3352 82.1612 27.5047 82.1082 27.6872H77.652ZM84.7739 4.22346C84.0047 4.22346 83.4344 4.44506 83.0631 4.88827C82.7183 5.33147 82.5458 6.04842 82.5458 7.03911V9.73743C82.5458 10.8324 82.7713 11.5885 83.2222 12.0056C83.6997 12.4227 84.3495 12.6313 85.1718 12.6313H86.8827V4.22346H84.7739Z" fill="#FF3000"/>
</svg>
