<svg width="28" height="48" viewBox="0 0 28 48" fill="none" xmlns="http://www.w3.org/2000/svg">
<path d="M0 14.2612C0 11.9078 1.90783 10 4.26125 10H23.7388C26.0922 10 28 11.9078 28 14.2613V33.7388C28 36.0922 26.0922 38 23.7388 38H4.26125C1.90783 38 0 36.0922 0 33.7388V14.2612Z" fill="#FF3000"/>
<path d="M21.0903 33.1875C19.8404 33.1875 18.9793 32.5024 18.9793 30.3801V29.9236H20.3681V30.3804C20.3681 31.5087 20.6737 31.8175 21.0903 31.8175C21.5068 31.8175 21.7987 31.5087 21.7987 30.9848C21.7987 30.3265 21.7015 29.964 20.7292 29.2789C19.5903 28.4865 19.0625 27.6402 19.0625 26.5522C19.0625 25.1687 19.8124 24.3359 21.0903 24.3359C21.9791 24.3359 23.1598 24.6046 23.1598 26.861V27.385H21.7709V26.861C21.7709 25.9746 21.4793 25.6791 21.0903 25.6791C20.6737 25.6791 20.4513 25.9746 20.4513 26.4983C20.4513 27.0355 20.5763 27.4787 21.5485 28.2042C22.757 29.1041 23.1875 29.8161 23.1875 30.9845C23.1875 32.1529 22.6318 33.1875 21.0903 33.1875ZM16.3541 33.1875C15.1042 33.1875 14.2431 32.6099 14.2431 30.3801V29.9236H15.632V30.3804C15.632 31.5087 15.9376 31.8175 16.3541 31.8175C16.7706 31.8175 17.0625 31.5087 17.0625 30.9848C17.0625 30.3265 16.9653 29.964 15.993 29.2789C14.8541 28.4865 14.3263 27.6402 14.3263 26.5522C14.3263 25.1687 15.0762 24.3359 16.3541 24.3359C17.2429 24.3359 18.4236 24.6046 18.4236 26.861V27.385H17.0348V26.861C17.0348 25.9746 16.7432 25.6791 16.3541 25.6791C15.9376 25.6791 15.7152 25.9746 15.7152 26.4983C15.7152 27.0355 15.8401 27.4787 16.8124 28.2042C18.0208 29.1041 18.4513 29.8161 18.4513 30.9845C18.4513 32.1529 17.8958 33.1875 16.3541 33.1875ZM21.0903 23.6641C19.8404 23.6641 18.9793 22.979 18.9793 20.8567V20.4002H20.3681V20.8569C20.3681 21.9853 20.6737 22.2941 21.0903 22.2941C21.5068 22.2941 21.7987 21.9853 21.7987 21.4613C21.7987 20.8031 21.7015 20.4406 20.7292 19.7555C19.5903 18.963 19.0625 18.1167 19.0625 17.0288C19.0625 15.6453 19.8124 14.8125 21.0903 14.8125C21.9791 14.8125 23.1598 15.0812 23.1598 17.3376V17.8615H21.7709V17.3376C21.7709 16.4512 21.4793 16.1557 21.0903 16.1557C20.6737 16.1557 20.4513 16.4512 20.4513 16.9749C20.4513 17.5121 20.5763 17.9553 21.5485 18.6808C22.757 19.5807 23.1875 20.2927 23.1875 21.4611C23.1875 22.6295 22.6318 23.6641 21.0903 23.6641ZM16.3541 23.6641C15.1042 23.6641 14.2431 23.0865 14.2431 20.8567V20.4002H15.632V20.8569C15.632 21.9853 15.9376 22.2941 16.3541 22.2941C16.7706 22.2941 17.0625 21.9853 17.0625 21.4613C17.0625 20.8031 16.9653 20.4406 15.993 19.7555C14.8541 18.963 14.3263 18.1167 14.3263 17.0288C14.3263 15.6453 15.0762 14.8125 16.3541 14.8125C17.2429 14.8125 18.4236 15.0812 18.4236 17.3376V17.8615H17.0348V17.3376C17.0348 16.4512 16.7432 16.1557 16.3541 16.1557C15.9376 16.1557 15.7152 16.4512 15.7152 16.9749C15.7152 17.5121 15.8401 17.9553 16.8124 18.6808C18.0208 19.5807 18.4513 20.2927 18.4513 21.4611C18.4513 22.6295 17.8958 23.6641 16.3541 23.6641ZM6.20158 29.9236H6.47944C7.09065 29.9236 7.39599 29.6281 7.39599 28.2581V27.479C7.39599 26.109 7.09039 25.8134 6.47944 25.8134H6.20158V29.9236ZM6.20158 33.0531H4.81276V24.47H6.47944C8.28506 24.47 8.78507 25.464 8.78507 27.3446V28.3922C8.78507 30.2726 8.28506 31.2668 6.47944 31.2668H6.20158V33.0531ZM6.47918 19.057H6.20132V16.29H6.47918C7.10413 16.29 7.39573 16.4916 7.39573 17.4316V17.9152C7.39599 18.8555 7.10438 19.057 6.47918 19.057ZM9.04868 23.53L7.9792 19.957C8.4932 19.5406 8.78481 18.8555 8.78481 18.0094V17.3379C8.78481 15.7663 8.06266 14.9469 6.47918 14.9469H4.8125V23.53H6.20132V20.4002H6.38198C6.45145 20.4002 6.54865 20.4002 6.70132 20.3867L7.53466 23.5297L9.04868 23.53ZM10.6319 29.9236L11.3403 25.8134H11.4515L12.1596 29.9236H10.6319ZM12.6876 33.0531H14.0765L12.5347 24.47H10.2571L8.7016 33.0531H10.0904L10.4098 31.2668H12.382L12.6876 33.0531ZM11.5347 23.6641C9.82629 23.6641 9.50695 22.4149 9.50695 20.8971V14.9469H10.9515V21.0181C10.9515 22.0793 11.1459 22.3209 11.5347 22.3209C11.9235 22.3209 12.1179 22.0793 12.1179 21.0181V14.9469H13.5625V20.8973C13.5625 22.4149 13.2431 23.6641 11.5347 23.6641Z" fill="white"/>
</svg>
