<svg width="24" height="24" viewBox="0 0 24 24" fill="none" xmlns="http://www.w3.org/2000/svg">
<path d="M10 19H6.5C5.137 19 4 18.153 4 16.8V2.4C4 2.176 4.176 2 4.4 2H19.6C19.824 2 20 2.176 20 2.4V16.8C20 18.153 18.863 19 17.5 19H16C14.542 19 13.605 19.276 12.4 20.5C12.137 20.753 11.77 21.168 11.3 21.745C11.1594 21.8955 10.9658 21.9853 10.7601 21.9956C10.5545 22.0058 10.3529 21.9357 10.198 21.8C10.035 21.655 10 21.454 10 21.237V19ZM6 4V16.4C6 16.763 6.211 17 6.6 17H11.7V18.7C13.007 17.54 14.288 17 16 17H17.4C17.789 17 18 16.763 18 16.4V4H6Z" fill="#1D1D1D"/>
</svg>
