<svg width="32" height="32" viewBox="0 0 32 32" fill="none" xmlns="http://www.w3.org/2000/svg">
<path fill-rule="evenodd" clip-rule="evenodd" d="M3.74055 6.66602C2.66875 8.52246 2.66875 11.0147 2.66875 15.9993C2.66875 20.984 2.66875 23.4763 3.74055 25.3327C4.44269 26.5489 5.4526 27.5587 6.66876 28.2609C8.5252 29.3327 11.0174 29.3327 16.0021 29.3327C20.9867 29.3327 23.479 29.3327 25.3354 28.2609C26.5516 27.5587 27.5614 26.5489 28.2636 25.3327C29.3354 23.4763 29.3354 20.984 29.3354 15.9993C29.3354 11.0147 29.3354 8.52246 28.2636 6.66602C27.5614 5.44986 26.5516 4.43996 25.3354 3.73782C23.479 2.66602 20.9867 2.66602 16.0021 2.66602C11.0174 2.66602 8.5252 2.66602 6.66876 3.73782C5.4526 4.43996 4.44269 5.44986 3.74055 6.66602ZM17.7215 12.1293C17.7215 11.1863 16.9504 10.4194 16.0022 10.4194C15.0549 10.4194 14.2829 11.1863 14.2829 12.1293C14.2829 13.0712 15.0549 13.8382 16.0022 13.8382C16.9504 13.8382 17.7215 13.0712 17.7215 12.1293ZM20.1546 12.1293C20.1546 14.4057 18.2926 16.2573 16.0022 16.2573C13.7122 16.2573 11.8497 14.4057 11.8497 12.1293C11.8497 9.85174 13.7122 7.99934 16.0022 7.99934C18.2926 7.99934 20.1546 9.85174 20.1546 12.1293ZM20.0934 18.6326C19.3428 19.1018 18.5275 19.4343 17.6822 19.6259L20.0037 21.9343C20.4793 22.4064 20.4793 23.1726 20.0037 23.645C19.5286 24.1175 18.7585 24.1175 18.2839 23.645L16.0017 21.3765L13.7214 23.645C13.4836 23.881 13.1721 23.9992 12.8605 23.9992C12.5494 23.9992 12.2384 23.881 12.0006 23.645C11.5255 23.1726 11.5255 22.4068 12.0002 21.9343L14.3217 19.6259C13.4763 19.4343 12.661 19.1012 11.9103 18.6326C11.3421 18.2765 11.1713 17.53 11.5294 16.9645C11.8866 16.3982 12.6373 16.2278 13.2065 16.584C14.9064 17.6473 17.0965 17.6477 18.7973 16.584C19.3666 16.2278 20.1173 16.3982 20.4749 16.9645C20.833 17.5296 20.6618 18.2765 20.0934 18.6326Z" fill="white"/>
</svg>
