<svg width="128" height="128" viewBox="0 0 128 128" fill="none" xmlns="http://www.w3.org/2000/svg">
<g filter="url(#filter0_d_418_28673)">
<path d="M114.375 50.025C112.615 48.19 110.8 46.295 110.205 44.86C109.675 43.58 109.635 40.945 109.6 38.625C109.525 33.625 109.43 27.405 105.01 22.99C100.59 18.575 94.375 18.49 89.375 18.4C87.055 18.365 84.42 18.325 83.14 17.795C81.705 17.2 79.81 15.385 77.975 13.625C74.435 10.23 70.025 6 64 6C57.975 6 53.565 10.23 50.025 13.625C48.19 15.385 46.295 17.2 44.86 17.795C43.58 18.325 40.945 18.365 38.625 18.4C33.625 18.5 27.405 18.57 23 23C18.595 27.43 18.5 33.625 18.4 38.625C18.365 40.945 18.325 43.58 17.795 44.86C17.2 46.295 15.385 48.19 13.625 50.025C10.23 53.565 6 58 6 64C6 70 10.23 74.435 13.625 78C15.385 79.835 17.2 81.73 17.795 83.165C18.325 84.445 18.365 87.08 18.4 89.4C18.475 94.4 18.57 100.62 22.99 105.035C27.41 109.45 33.625 109.535 38.625 109.625C40.945 109.66 43.58 109.7 44.86 110.23C46.295 110.825 48.19 112.64 50.025 114.4C53.565 117.77 58 122 64 122C70 122 74.435 117.77 77.975 114.375C79.81 112.615 81.705 110.8 83.14 110.205C84.42 109.675 87.055 109.635 89.375 109.6C94.375 109.525 100.595 109.43 105.01 105.01C109.425 100.59 109.51 94.375 109.6 89.375C109.635 87.055 109.675 84.42 110.205 83.14C110.8 81.705 112.615 79.81 114.375 77.975C117.77 74.435 122 70.025 122 64C122 57.975 117.77 53.565 114.375 50.025ZM105.715 69.67C103.305 72.17 100.575 75.03 99.12 78.55C97.71 81.95 97.655 85.63 97.62 89.195C97.58 91.875 97.525 95.55 96.545 96.525C95.565 97.5 91.895 97.56 89.215 97.6C85.65 97.655 81.97 97.71 78.57 99.1C75.07 100.555 72.205 103.285 69.69 105.695C67.89 107.42 65.2 110 64 110C62.8 110 60.11 107.42 58.33 105.715C55.83 103.305 52.97 100.575 49.45 99.12C46.05 97.71 42.37 97.655 38.805 97.62C36.125 97.58 32.45 97.525 31.475 96.545C30.5 95.565 30.44 91.895 30.4 89.215C30.345 85.65 30.29 81.97 28.9 78.57C27.445 75.07 24.715 72.205 22.305 69.69C20.58 67.89 18 65.2 18 64C18 62.8 20.58 60.11 22.285 58.33C24.695 55.83 27.425 52.97 28.88 49.45C30.29 46.05 30.345 42.37 30.38 38.805C30.44 36.125 30.5 32.45 31.5 31.5C32.5 30.55 36.15 30.465 38.83 30.425C42.395 30.37 46.075 30.315 49.475 28.925C52.975 27.47 55.84 24.74 58.355 22.33C60.11 20.58 62.8 18 64 18C65.2 18 67.89 20.58 69.67 22.285C72.17 24.695 75.03 27.425 78.55 28.88C81.95 30.29 85.63 30.345 89.195 30.38C91.875 30.42 95.55 30.475 96.525 31.455C97.5 32.435 97.56 36.105 97.6 38.785C97.655 42.35 97.71 46.03 99.1 49.43C100.555 52.93 103.285 55.795 105.695 58.31C107.4 60.09 109.98 62.78 109.98 63.98C109.98 65.18 107.42 67.89 105.715 69.67ZM88.245 47.755C88.8044 48.3124 89.2482 48.9748 89.551 49.7041C89.8538 50.4334 90.0097 51.2153 90.0097 52.005C90.0097 52.7947 89.8538 53.5766 89.551 54.3059C89.2482 55.0352 88.8044 55.6976 88.245 56.255L60.245 84.255C59.6876 84.8144 59.0252 85.2582 58.2959 85.561C57.5666 85.8638 56.7847 86.0197 55.995 86.0197C55.2053 86.0197 54.4234 85.8638 53.6941 85.561C52.9648 85.2582 52.3024 84.8144 51.745 84.255L39.745 72.255C39.1869 71.6969 38.7442 71.0343 38.4421 70.3051C38.1401 69.5759 37.9846 68.7943 37.9846 68.005C37.9846 67.2157 38.1401 66.4341 38.4421 65.7049C38.7442 64.9757 39.1869 64.3131 39.745 63.755C40.3031 63.1969 40.9657 62.7542 41.6949 62.4521C42.4241 62.1501 43.2057 61.9946 43.995 61.9946C44.7843 61.9946 45.5659 62.1501 46.2951 62.4521C47.0243 62.7542 47.6869 63.1969 48.245 63.755L56 71.5L79.755 47.74C80.3132 47.1831 80.9757 46.7417 81.7047 46.4411C82.4336 46.1404 83.2146 45.9864 84.0031 45.9878C84.7916 45.9892 85.5721 46.146 86.2999 46.4492C87.0278 46.7524 87.6888 47.1962 88.245 47.755Z" fill="#FFCF08"/>
</g>
<defs>
<filter id="filter0_d_418_28673" x="2" y="3" width="124" height="124" filterUnits="userSpaceOnUse" color-interpolation-filters="sRGB">
<feFlood flood-opacity="0" result="BackgroundImageFix"/>
<feColorMatrix in="SourceAlpha" type="matrix" values="0 0 0 0 0 0 0 0 0 0 0 0 0 0 0 0 0 0 127 0" result="hardAlpha"/>
<feOffset dy="1"/>
<feGaussianBlur stdDeviation="2"/>
<feComposite in2="hardAlpha" operator="out"/>
<feColorMatrix type="matrix" values="0 0 0 0 0 0 0 0 0 0 0 0 0 0 0 0 0 0 0.1 0"/>
<feBlend mode="normal" in2="BackgroundImageFix" result="effect1_dropShadow_418_28673"/>
<feBlend mode="normal" in="SourceGraphic" in2="effect1_dropShadow_418_28673" result="shape"/>
</filter>
</defs>
</svg>
