<svg width="175" height="56" viewBox="0 0 175 56" fill="none" xmlns="http://www.w3.org/2000/svg">
<g clip-path="url(#clip0_583_5110)">
<path d="M7.98923 2.61275C7.82631 2.16471 7.57028 1.75157 7.22115 1.37335C6.87203 0.995132 6.37743 0.698374 5.74318 0.483079C5.10893 0.267783 4.36413 0.157227 3.50295 0.157227C3.20037 0.157227 2.59522 0.163045 1.69331 0.174683C0.791395 0.18632 0.232792 0.192139 0.0233154 0.192139V12.4116H2.17627V7.99513C2.52539 8.03004 3.0549 8.0475 3.76479 8.0475C5.1613 8.0475 6.25524 7.66346 7.04659 6.89538C7.83794 6.1273 8.23362 5.19048 8.23362 4.08491C8.23362 3.54958 8.15216 3.05498 7.98923 2.60694V2.61275ZM5.33587 5.54542C4.91691 5.87709 4.36995 6.04002 3.69497 6.04002C3.2411 6.04002 2.73487 6.01093 2.17627 5.95274V2.19962C2.94435 2.17635 3.4564 2.16471 3.71243 2.16471C5.21367 2.16471 5.9643 2.79896 5.9643 4.06745C5.9643 4.71916 5.75482 5.21375 5.33587 5.54542Z" fill="white"/>
<path d="M13.197 0.157227L8.02991 12.4116H10.1945L11.4688 9.2869H16.6883L17.9626 12.4116H20.2494L15.0823 0.157227H13.197ZM12.2893 7.27942L14.0873 2.93279L15.8678 7.27942H12.2893Z" fill="white"/>
<path d="M27.3542 6.09223V6.03986C27.8895 5.72565 28.2968 5.32415 28.5761 4.83537C28.8554 4.34659 28.9951 3.852 28.9951 3.35158C28.9951 2.29256 28.6634 1.46629 27.9884 0.878596C27.3193 0.290899 26.429 -0.00585938 25.3234 -0.00585938C24.5088 -0.00585938 23.7465 0.168704 23.0367 0.517831C22.3268 0.866959 21.7682 1.32664 21.3608 1.89688L22.6002 3.32831C23.2636 2.44385 24.0899 2.00162 25.079 2.00162C25.6144 2.00162 26.045 2.13545 26.3708 2.40312C26.6967 2.67078 26.8596 3.05482 26.8596 3.55524C26.8596 4.05565 26.685 4.43388 26.3359 4.72481C25.9868 5.01575 25.5736 5.16122 25.0965 5.16122H23.9095V7.1687H25.1663C25.8646 7.1687 26.3999 7.31417 26.7723 7.60511C27.1447 7.89605 27.3309 8.28591 27.3309 8.77469C27.3309 9.36821 27.1156 9.82207 26.685 10.1305C26.2544 10.4389 25.7191 10.596 25.079 10.596C24.5903 10.596 24.0782 10.4563 23.5429 10.177C23.0076 9.89772 22.5479 9.53695 22.1638 9.09472L20.9943 10.5436C21.3667 11.1138 21.9078 11.5968 22.6235 12.0041C23.3392 12.4056 24.1946 12.6035 25.1838 12.6035C26.3475 12.6035 27.3484 12.2718 28.1979 11.6084C29.0416 10.9451 29.4664 10.0723 29.4664 8.98998C29.4664 8.25682 29.2919 7.63421 28.9427 7.12215C28.5936 6.6101 28.0641 6.26679 27.3542 6.09223Z" fill="white"/>
<path d="M37.1588 5.97003V5.93512C38.3225 5.38815 38.9044 4.46297 38.9044 3.15956C38.9044 2.25183 38.5785 1.51866 37.9327 0.965876C37.2868 0.413091 36.2685 0.133789 34.8836 0.133789C33.6733 0.133789 32.4979 0.162883 31.3574 0.221071V12.394C32.1488 12.4522 33.2834 12.4813 34.7614 12.4813C36.123 12.4813 37.2228 12.1729 38.0548 11.5561C38.8869 10.9393 39.3059 10.0257 39.3059 8.81542C39.3059 8.0357 39.108 7.40727 38.7124 6.93013C38.3167 6.45299 37.7988 6.13296 37.1588 5.97003ZM33.5104 2.19946C33.8944 2.16455 34.3425 2.14709 34.8545 2.14709C35.448 2.14709 35.9135 2.28092 36.2568 2.54277C36.6001 2.80461 36.7747 3.18283 36.7747 3.67161C36.7747 4.20694 36.606 4.61425 36.2685 4.88774C35.931 5.16122 35.4946 5.30087 34.9593 5.30087H33.5104V2.19946ZM34.9243 10.4738C34.4705 10.4738 33.9992 10.4447 33.5104 10.3865V7.15706H35.0291C35.7041 7.15706 36.2277 7.2909 36.6001 7.55274C36.9726 7.81459 37.1588 8.20445 37.1588 8.7165C37.1588 9.89189 36.4139 10.4796 34.9243 10.4796V10.4738Z" fill="white"/>
<path d="M43.35 8.88565V0.192383H41.2029V12.4118H43.0882L49.4947 3.73602V12.4118H51.6418V0.192383H49.7565L43.35 8.88565Z" fill="white"/>
<path d="M53.5096 2.19986H57.4722V12.4118H59.6194V2.19986H63.582V0.192383H53.5096V2.19986Z" fill="white"/>
<path d="M67.5968 8.88565V0.192383H65.4497V12.4118H67.335L73.7473 3.73602V12.4118H75.8944V0.192383H74.0091L67.5968 8.88565Z" fill="white"/>
<path d="M80.4914 7.24475H84.8904V5.23727H80.4914V2.19986H85.4199V0.192383H78.3442V12.4118H85.5945V10.4044H80.4914V7.24475Z" fill="white"/>
<path d="M91.5005 2.19986H95.4631V12.4118H97.6102V2.19986H101.573V0.192383H91.5005V2.19986Z" fill="white"/>
<path d="M109.312 7.01782L105.314 0.192383H102.888L108.282 9.13004L108.107 9.54899C107.84 10.1192 107.438 10.4044 106.903 10.4044C106.589 10.4044 106.286 10.3054 105.995 10.1076L105.244 11.9231C105.652 12.2489 106.21 12.4118 106.92 12.4118C107.63 12.4118 108.282 12.1791 108.806 11.7136C109.329 11.2481 109.806 10.5324 110.237 9.56645L114.397 0.192383H112.233L109.318 7.01782H109.312Z" fill="white"/>
<path d="M123.492 1.37335C123.143 0.995132 122.648 0.698374 122.014 0.483079C121.38 0.267783 120.629 0.157227 119.768 0.157227C119.466 0.157227 118.86 0.163045 117.958 0.174683C117.057 0.18632 116.498 0.192139 116.288 0.192139V12.4116H118.436V7.99513C118.785 8.03004 119.314 8.0475 120.024 8.0475C121.421 8.0475 122.515 7.66346 123.306 6.89538C124.097 6.1273 124.493 5.19048 124.493 4.08491C124.493 3.54958 124.411 3.05498 124.249 2.60694C124.086 2.15889 123.83 1.74576 123.48 1.36753L123.492 1.37335ZM121.607 5.54542C121.188 5.87709 120.641 6.04002 119.966 6.04002C119.512 6.04002 119.006 6.01093 118.447 5.95274V2.19962C119.215 2.17635 119.727 2.16471 119.983 2.16471C121.485 2.16471 122.235 2.79896 122.235 4.06745C122.235 4.71916 122.026 5.21375 121.607 5.54542Z" fill="white"/>
<path d="M128.2 8.88565V0.192383H126.052V12.4118H127.938L134.344 3.73602V12.4118H136.491V0.192383H134.606L128.2 8.88565Z" fill="white"/>
<path d="M144.219 6.09223V6.03986C144.754 5.72565 145.161 5.32415 145.441 4.83537C145.72 4.34659 145.86 3.852 145.86 3.35158C145.86 2.29256 145.528 1.46629 144.853 0.878596C144.184 0.290899 143.294 -0.00585938 142.188 -0.00585938C141.373 -0.00585938 140.611 0.168704 139.901 0.517831C139.191 0.866959 138.633 1.32664 138.225 1.89688L139.465 3.32831C140.128 2.44385 140.954 2.00162 141.944 2.00162C142.479 2.00162 142.909 2.13545 143.235 2.40312C143.561 2.67078 143.724 3.05482 143.724 3.55524C143.724 4.05565 143.55 4.43388 143.2 4.72481C142.851 5.01575 142.438 5.16122 141.961 5.16122H140.774V7.1687H142.031C142.729 7.1687 143.264 7.31417 143.637 7.60511C144.009 7.89605 144.195 8.28591 144.195 8.77469C144.195 9.36821 143.98 9.82207 143.55 10.1305C143.119 10.4389 142.584 10.596 141.944 10.596C141.455 10.596 140.943 10.4563 140.407 10.177C139.872 9.89772 139.412 9.53695 139.028 9.09472L137.859 10.5436C138.231 11.1138 138.772 11.5968 139.488 12.0041C140.204 12.4056 141.059 12.6035 142.048 12.6035C143.212 12.6035 144.213 12.2718 145.062 11.6084C145.906 10.9451 146.331 10.0723 146.331 8.98998C146.331 8.25682 146.156 7.63421 145.807 7.12215C145.458 6.6101 144.929 6.26679 144.219 6.09223Z" fill="white"/>
<path d="M154.564 5.90061L150.392 0.192383H148.228V12.4118H150.375V3.63129L154.268 9.00784H154.582L158.44 3.57892V12.4118H160.569V0.192383H158.544L154.564 5.90061Z" fill="white"/>
<path d="M169.437 0.157227H167.552L162.385 12.4116H164.549L165.824 9.2869H171.043L172.318 12.4116H174.604L169.437 0.157227ZM166.644 7.27942L168.442 2.93279L170.223 7.27942H166.644Z" fill="white"/>
<path d="M2.14713 30.3573V21.6641H0V33.8835H1.88529L8.29177 25.2077V33.8835H10.4389V21.6641H8.55362L2.14713 30.3573Z" fill="white"/>
<path d="M16.3275 33.8835H18.4746V23.6715H23.2228V21.6641H16.3275V33.8835Z" fill="white"/>
<path d="M29.734 21.4717C27.8836 21.4717 26.3591 22.071 25.1662 23.2813C23.9734 24.4858 23.374 25.9871 23.374 27.7792C23.374 29.5714 23.9734 31.1716 25.172 32.3354C26.3707 33.4991 27.8894 34.081 29.7281 34.081C31.5669 34.081 33.0739 33.4875 34.2842 32.3004C35.4946 31.1134 36.0997 29.6063 36.0997 27.7792C36.0997 25.9521 35.4946 24.3869 34.2901 23.2231C33.0856 22.0594 31.5611 21.4775 29.7223 21.4775L29.734 21.4717ZM32.7306 30.8457C31.9916 31.6604 30.9966 32.0677 29.734 32.0677C28.5818 32.0677 27.6101 31.6546 26.8246 30.8341C26.039 30.0137 25.6434 28.9954 25.6434 27.7676C25.6434 26.5398 26.0274 25.4808 26.8071 24.6778C27.581 23.8748 28.5586 23.4733 29.734 23.4733C30.9094 23.4733 31.8753 23.8748 32.6608 24.6778C33.4463 25.4808 33.842 26.5107 33.842 27.7676C33.842 29.0245 33.4696 30.0253 32.7306 30.8399V30.8457Z" fill="white"/>
<path d="M43.7399 32.0676C42.4946 32.0676 41.4764 31.6662 40.6908 30.869C39.9053 30.0718 39.5096 29.0361 39.5096 27.7676C39.5096 26.4991 39.8878 25.4226 40.6384 24.6429C41.3891 23.8632 42.3433 23.4733 43.4955 23.4733C44.5079 23.4733 45.4273 23.7468 46.2536 24.2938L47.2137 22.7052C46.3059 21.879 45.0665 21.4658 43.4955 21.4658C41.5404 21.4658 40.01 22.0593 38.9044 23.2464C37.7989 24.4334 37.2461 25.9405 37.2461 27.7676C37.2461 29.5947 37.828 31.189 38.9917 32.3411C40.1555 33.4933 41.6742 34.0693 43.5478 34.0693C44.3392 34.0693 45.0898 33.9413 45.8113 33.6853C46.5329 33.4292 47.0798 33.0976 47.4639 32.6903L46.6434 31.0843C45.7939 31.736 44.828 32.0618 43.7457 32.0618L43.7399 32.0676Z" fill="white"/>
<path d="M48.5636 23.6715H52.5262V33.8835H54.6733V23.6715H58.6359V21.6641H48.5636V23.6715Z" fill="white"/>
<path d="M62.5461 28.7164H66.9451V26.709H62.5461V23.6715H67.4688V21.6641H60.3932V33.8835H67.6434V31.876H62.5461V28.7164Z" fill="white"/>
<path d="M69.4414 33.8835H71.5885V23.6715H77.0349V33.8835H79.1821V21.6641H69.4414V33.8835Z" fill="white"/>
<path d="M88.3932 22.845C88.0441 22.4668 87.5495 22.1701 86.9153 21.9548C86.281 21.7395 85.5304 21.6289 84.6692 21.6289C84.3666 21.6289 83.7615 21.6347 82.8596 21.6464C81.9577 21.658 81.3991 21.6638 81.1896 21.6638V33.8833H83.3367V29.4668C83.6858 29.5017 84.2153 29.5192 84.9252 29.5192C86.3217 29.5192 87.4157 29.1351 88.207 28.3671C88.9984 27.599 89.3941 26.6622 89.3941 25.5566C89.3941 25.0213 89.3126 24.5267 89.1497 24.0786C88.9868 23.6306 88.7307 23.2174 88.3816 22.8392L88.3932 22.845ZM86.5079 27.0171C86.089 27.3488 85.542 27.5117 84.8671 27.5117C84.4132 27.5117 83.907 27.4826 83.3483 27.4244V23.6713C84.1164 23.648 84.6285 23.6364 84.8845 23.6364C86.3858 23.6364 87.1364 24.2706 87.1364 25.5391C87.1364 26.1908 86.9269 26.6854 86.5079 27.0171Z" fill="white"/>
<path d="M93.4206 30.3573V21.6641H91.2734V33.8835H93.1587L99.5652 25.2077V33.8835H101.712V21.6641H99.8271L93.4206 30.3573Z" fill="white"/>
<path d="M105.879 30.3573V21.6641H103.731V33.8835H105.617L112.029 25.2077V33.8835H114.176V21.6641H112.291L105.879 30.3573Z" fill="white"/>
<path d="M122.532 27.3723L118.354 21.6641H116.19V33.8835H118.337V25.103L122.235 30.4795H122.55L126.407 25.0506V33.8835H128.537V21.6641H126.512L122.532 27.3723Z" fill="white"/>
<path d="M137.073 32.0676C135.828 32.0676 134.81 31.6662 134.024 30.869C133.239 30.0718 132.843 29.0361 132.843 27.7676C132.843 26.4991 133.221 25.4226 133.972 24.6429C134.722 23.8632 135.677 23.4733 136.829 23.4733C137.841 23.4733 138.761 23.7468 139.587 24.2938L140.547 22.7052C139.639 21.879 138.4 21.4658 136.829 21.4658C134.874 21.4658 133.343 22.0593 132.238 23.2464C131.132 24.4334 130.579 25.9405 130.579 27.7676C130.579 29.5947 131.161 31.189 132.325 32.3411C133.489 33.4933 135.007 34.0693 136.881 34.0693C137.672 34.0693 138.423 33.9413 139.145 33.6853C139.866 33.4292 140.413 33.0976 140.797 32.6903L139.977 31.0843C139.127 31.736 138.161 32.0618 137.079 32.0618L137.073 32.0676Z" fill="white"/>
<path d="M142.444 23.6715H146.406V33.8835H148.554V23.6715H152.516V21.6641H142.444V23.6715Z" fill="white"/>
<path d="M159.743 27.4417V27.4068C160.907 26.8598 161.489 25.9346 161.489 24.6312C161.489 23.7235 161.163 22.9903 160.517 22.4376C159.871 21.8848 158.853 21.6055 157.468 21.6055C156.258 21.6055 155.082 21.6346 153.942 21.6927V33.8598C154.733 33.918 155.868 33.9471 157.346 33.9471C158.707 33.9471 159.807 33.6387 160.639 33.0219C161.471 32.4051 161.89 31.4916 161.89 30.2813C161.89 29.5016 161.692 28.8731 161.297 28.396C160.901 27.9189 160.383 27.5988 159.743 27.4359V27.4417ZM156.095 23.6711C156.479 23.6362 156.927 23.6188 157.439 23.6188C158.032 23.6188 158.498 23.7526 158.841 24.0144C159.185 24.2763 159.359 24.6545 159.359 25.1433C159.359 25.6786 159.19 26.0859 158.853 26.3594C158.515 26.6329 158.079 26.7725 157.544 26.7725H156.095V23.6828V23.6711ZM157.509 31.9455C157.055 31.9455 156.584 31.9164 156.095 31.8582V28.6287H157.613C158.288 28.6287 158.812 28.7626 159.185 29.0244C159.557 29.2863 159.743 29.6761 159.743 30.1882C159.743 31.3636 158.998 31.9513 157.509 31.9513V31.9455Z" fill="white"/>
<path d="M169.466 21.6289H167.581L162.414 33.8833H164.579L165.853 30.7586H171.072L172.347 33.8833H174.633L169.466 21.6289ZM166.673 28.7511L168.471 24.4045L170.252 28.7511H166.673Z" fill="white"/>
<path d="M6.91271 48.8489L2.74064 43.1406H0.57605V55.3601H2.72318V46.5795L6.61595 51.9561H6.93016L10.788 46.5272V55.3601H12.9177V43.1406H10.8928L6.91271 48.8489Z" fill="white"/>
<path d="M39.3292 53.5442C38.084 53.5442 37.0657 53.1427 36.2802 52.3455C35.4946 51.5484 35.099 50.5184 35.099 49.2441C35.099 47.9698 35.4772 46.8992 36.2278 46.1194C36.9784 45.3397 37.9327 44.9499 39.0848 44.9499C40.0973 44.9499 41.0167 45.2233 41.8429 45.7703L42.803 44.1818C41.8953 43.3555 40.6559 42.9424 39.0848 42.9424C37.1297 42.9424 35.5994 43.5359 34.4938 44.7229C33.3882 45.91 32.8354 47.417 32.8354 49.2441C32.8354 51.0712 33.4173 52.6656 34.5811 53.8177C35.7448 54.9698 37.2635 55.5459 39.1372 55.5459C39.9286 55.5459 40.6792 55.4179 41.4007 55.1618C42.1164 54.9058 42.6692 54.5741 43.0532 54.1668L42.2328 52.5608C41.3832 53.2125 40.4173 53.5384 39.335 53.5384L39.3292 53.5442Z" fill="white"/>
<path d="M54.7315 43.1406H52.1479L47.33 48.9361V43.1406H45.1829V55.3601H47.33V49.0583L52.3225 55.3601H55.0457L49.7041 48.8314L54.7315 43.1406Z" fill="white"/>
<path d="M62.2436 48.9183V48.8834C63.4073 48.3364 63.9892 47.4112 63.9892 46.1078C63.9892 45.2001 63.6634 44.4669 63.0175 43.9141C62.3716 43.3613 61.3533 43.082 59.9684 43.082C58.7581 43.082 57.5827 43.1111 56.4423 43.1693V55.3364C57.2336 55.3946 58.3683 55.4237 59.8463 55.4237C61.2078 55.4237 62.3076 55.1153 63.1397 54.4985C63.9718 53.8817 64.3907 52.9681 64.3907 51.7578C64.3907 50.9781 64.1929 50.3497 63.7972 49.8726C63.4015 49.3954 62.8837 49.0754 62.2436 48.9125V48.9183ZM58.5952 45.1477C58.9792 45.1128 59.4273 45.0953 59.9394 45.0953C60.5329 45.0953 60.9984 45.2292 61.3417 45.491C61.685 45.7529 61.8595 46.1311 61.8595 46.6199C61.8595 47.1552 61.6908 47.5625 61.3533 47.836C61.0158 48.1095 60.5794 48.2491 60.0441 48.2491H58.5952V45.1593V45.1477ZM60.0092 53.422C59.5553 53.422 59.084 53.3929 58.5952 53.3347V50.1053H60.1139C60.7889 50.1053 61.3126 50.2391 61.685 50.4952C62.0574 50.757 62.2436 51.1469 62.2436 51.6589C62.2436 52.8343 61.4988 53.422 60.0092 53.422Z" fill="white"/>
<path d="M77.9833 43.1406H75.8536V55.3601H77.9833V43.1406Z" fill="white"/>
<path d="M69.7963 47.2429C69.3425 47.2429 68.8886 47.272 68.4347 47.3301V43.1406H66.2876V55.3601C66.4854 55.3601 66.9335 55.3601 67.6434 55.3775C68.3474 55.3892 68.9119 55.395 69.325 55.395C70.8728 55.395 72.0831 55.0226 72.9559 54.272C73.8287 53.5213 74.2652 52.4914 74.2652 51.188C74.2652 49.9544 73.8869 48.9885 73.1363 48.2903C72.3857 47.592 71.2685 47.2429 69.7905 47.2429H69.7963ZM69.5868 53.3875C69.4588 53.3875 69.3308 53.3875 69.2028 53.3817C69.0748 53.3817 68.9351 53.3642 68.7839 53.3526C68.6326 53.341 68.5162 53.3351 68.4347 53.3351V49.3376C68.9817 49.2794 69.3774 49.2504 69.6218 49.2504C70.3782 49.2504 70.9659 49.4191 71.379 49.7566C71.7922 50.0941 72.0016 50.5887 72.0016 51.2404C72.0016 52.6718 71.1987 53.3875 69.5927 53.3875H69.5868Z" fill="white"/>
<path d="M23.2228 39.0732L25.4223 45.3633L32.2477 45.439L26.6093 49.8089L28.6401 56.0001L23.2228 52.2179L17.8113 56.0001L19.8246 49.838L14.1979 45.439L21.0233 45.3633L23.2228 39.0732Z" fill="#E50843"/>
</g>
<defs>
<clipPath id="clip0_583_5110">
<rect width="174.639" height="56" fill="white"/>
</clipPath>
</defs>
</svg>
