<svg width="32" height="32" viewBox="0 0 32 32" fill="none" xmlns="http://www.w3.org/2000/svg">
<path fill-rule="evenodd" clip-rule="evenodd" d="M10.6687 2.66602H21.3354C25.7537 2.66602 29.3354 6.24774 29.3354 10.666V21.3327C29.3354 25.7509 25.7537 29.3327 21.3354 29.3327H10.6687C6.25047 29.3327 2.66875 25.7509 2.66875 21.3327V10.666C2.66875 6.24774 6.25047 2.66602 10.6687 2.66602ZM21.337 22.6984C21.337 22.6984 20.9595 23.621 19.953 23.1806L16.1786 20.2869L13.7462 22.4887C13.7462 22.4887 13.5575 22.6354 13.3478 22.5516C13.3478 22.5516 13.1591 22.5306 12.9494 21.8386C12.7187 21.1257 11.5864 17.4142 11.5864 17.4142L7.83299 16.1561C7.83299 16.1561 7.26683 15.9464 7.20393 15.506C7.14102 15.0657 7.85396 14.8141 7.85396 14.8141L22.7628 8.96374C22.7628 8.96374 23.979 8.41855 24 9.32021L21.337 22.6984ZM21.1043 11.6902C21.1253 11.3757 20.6011 11.6902 20.6011 11.6902L12.3603 16.9324C12.2345 17.0163 12.1925 17.1631 12.2345 17.2889L13.22 20.5181C13.2829 20.7068 13.5555 20.6858 13.5975 20.4761L13.8281 18.5051C13.8281 18.4212 13.87 18.3583 13.933 18.3163C14.7298 17.6034 20.664 12.2773 20.9156 12.0257C21.1882 11.7321 21.1043 11.6902 21.1043 11.6902Z" fill="white"/>
</svg>
