<svg width="26" height="16" viewBox="0 0 26 16" fill="none" xmlns="http://www.w3.org/2000/svg">
<path d="M3.66667 8.00023C3.66667 6.47633 2.55359 5.17985 1 4.69938V2.86667C1 2.21327 1 1.88657 1.14532 1.63701C1.27316 1.41749 1.47713 1.23902 1.72801 1.12716C2.01323 1 2.3866 1 3.13333 1H22.8667C23.6135 1 23.9868 1 24.272 1.12716C24.5229 1.23902 24.7268 1.41749 24.8547 1.63701C25 1.88657 25 2.21327 25 2.86667V4.69916C23.4464 5.17963 22.3333 6.47633 22.3333 8.00023C22.3333 9.52413 23.4464 10.8204 25 11.3008V13.1333C25 13.7868 25 14.1135 24.8547 14.363C24.7268 14.5826 24.5229 14.761 24.272 14.8728C23.9868 15 23.6135 15 22.8667 15H3.13333C2.3866 15 2.01323 15 1.72801 14.8728C1.47713 14.761 1.27316 14.5826 1.14532 14.363C1 14.1135 1 13.7868 1 13.1333V11.3011C2.55359 10.8207 3.66667 9.52413 3.66667 8.00023Z" stroke="#1D1D1D" stroke-width="2" stroke-linecap="round" stroke-linejoin="round"/>
</svg>
