<svg width="32" height="32" viewBox="0 0 32 32" fill="none" xmlns="http://www.w3.org/2000/svg">
<path fill-rule="evenodd" clip-rule="evenodd" d="M3.74055 6.66602C2.66875 8.52246 2.66875 11.0147 2.66875 15.9993C2.66875 20.984 2.66875 23.4763 3.74055 25.3327C4.44269 26.5489 5.45259 27.5587 6.66875 28.2609C8.52514 29.3327 11.0175 29.3327 16.0021 29.3327C20.9867 29.3327 23.479 29.3327 25.3354 28.2609C26.5515 27.5587 27.5615 26.5489 28.2636 25.3327C29.3354 23.4763 29.3354 20.984 29.3354 15.9993C29.3354 11.0147 29.3354 8.52246 28.2636 6.66602C27.5615 5.44986 26.5515 4.43996 25.3354 3.73782C23.479 2.66602 20.9867 2.66602 16.0021 2.66602C11.0175 2.66602 8.52514 2.66602 6.66875 3.73782C5.45259 4.43996 4.44269 5.44986 3.74055 6.66602ZM7.66877 10.9993H9.61322C10.1102 10.9993 10.2971 11.2169 10.4835 11.7553C11.4344 14.5255 13.0379 16.9465 13.6971 16.9465C13.9443 16.9465 14.0577 16.8327 14.0577 16.2049V13.3415C14.0131 12.5264 13.7283 12.1739 13.5174 11.9129C13.3872 11.7516 13.2851 11.6253 13.2851 11.4463C13.2851 11.2288 13.4709 10.9993 13.7799 10.9993H16.8355C17.2475 10.9993 17.391 11.2197 17.391 11.7141V15.5663C17.391 15.9783 17.5699 16.1225 17.6935 16.1225C17.9407 16.1225 18.1467 15.9783 18.5999 15.5251C20.0007 13.9595 20.9895 11.5493 20.9895 11.5493C21.1131 11.2609 21.3411 10.9993 21.8355 10.9993H23.7799C24.3679 10.9993 24.4915 11.3021 24.3679 11.7141C24.1383 12.7661 22.0793 15.7188 21.7863 16.1353L21.7517 16.1843C21.5457 16.5138 21.4633 16.6787 21.7517 17.0494C21.8532 17.1917 22.0699 17.404 22.3179 17.6469C22.5729 17.8966 22.8609 18.1787 23.0907 18.4503C23.9259 19.3899 24.5554 20.1826 24.7307 20.7289C24.891 21.2771 24.6132 21.5549 24.0576 21.5549H22.1132C21.5924 21.5549 21.3302 21.2632 20.7635 20.6328C20.5232 20.3656 20.2283 20.0375 19.8359 19.6451C18.6823 18.5327 18.1879 18.3885 17.8995 18.3885C17.5081 18.3885 17.391 18.4993 17.391 19.0549V20.7987C17.391 21.2771 17.2381 21.5549 16.0021 21.5549C13.9421 21.5549 11.6783 20.3042 10.0715 17.9971C7.66131 14.6187 7.0021 12.0643 7.0021 11.5493C7.0021 11.2609 7.11322 10.9993 7.66877 10.9993Z" fill="white"/>
</svg>
