<svg width="24" height="24" viewBox="0 0 24 24" fill="none" xmlns="http://www.w3.org/2000/svg">
<path d="M4.15693 4.34162C6.66118 2.18311 9.99417 2.8172 11.9929 5.17442C13.9916 2.8172 17.2815 2.20582 19.8288 4.34162C22.3761 6.47743 22.6856 10.1091 20.719 12.6619C19.0839 14.7845 13.6444 19.5496 12.0226 20.9985C10.4008 19.5496 4.90182 14.7845 3.26672 12.6619C1.30012 10.1091 1.65269 6.50014 4.15693 4.34162Z" fill="#1D1D1D" fill-opacity="0.3"/>
<path d="M11.9929 5.17442L11.2302 5.82115L11.9929 6.72068L12.7556 5.82115L11.9929 5.17442ZM4.15693 4.34162L3.50405 3.58417L3.50405 3.58417L4.15693 4.34162ZM3.26672 12.6619L2.47453 13.2722L2.47453 13.2722L3.26672 12.6619ZM20.719 12.6619L21.5112 13.2722L21.5112 13.2722L20.719 12.6619ZM19.8288 4.34162L20.4713 3.57534L20.4713 3.57534L19.8288 4.34162ZM12.0226 20.9985L11.3564 21.7443C11.7359 22.0833 12.3094 22.0833 12.6889 21.7443L12.0226 20.9985ZM12.7556 4.5277C10.4636 1.82461 6.50236 0.999805 3.50405 3.58417L4.80982 5.09908C6.82001 3.36642 9.52471 3.80979 11.2302 5.82115L12.7556 4.5277ZM3.50405 3.58417C0.600842 6.08656 0.181347 10.2954 2.47453 13.2722L4.05892 12.0517C2.4189 9.92273 2.70453 6.91371 4.80982 5.09908L3.50405 3.58417ZM21.5112 13.2722C23.7957 10.3067 23.4412 6.06544 20.4713 3.57534L19.1863 5.10791C21.3111 6.88942 21.5756 9.9114 19.9268 12.0517L21.5112 13.2722ZM20.4713 3.57534C17.4402 1.03388 13.5297 1.81566 11.2302 4.5277L12.7556 5.82115C14.4535 3.81873 17.1228 3.37776 19.1863 5.10791L20.4713 3.57534ZM2.47453 13.2722C3.35414 14.414 5.20556 16.1947 6.97296 17.8191C8.7613 19.4628 10.558 21.031 11.3564 21.7443L12.6889 20.2528C11.8654 19.5172 10.1017 17.9783 8.32636 16.3466C6.53003 14.6956 4.8144 13.0324 4.05892 12.0517L2.47453 13.2722ZM12.6889 21.7443C13.4928 21.0261 15.2697 19.4622 17.0456 17.8163C18.7992 16.191 20.6333 14.4119 21.5112 13.2722L19.9268 12.0517C19.1697 13.0346 17.4665 14.6993 15.6861 16.3494C13.928 17.9789 12.1743 19.5221 11.3564 20.2528L12.6889 21.7443Z" fill="white"/>
</svg>
