<svg width="32" height="32" viewBox="0 0 32 32" fill="none" xmlns="http://www.w3.org/2000/svg">
<path fill-rule="evenodd" clip-rule="evenodd" d="M3.74055 6.66602C2.66875 8.52246 2.66875 11.0147 2.66875 15.9993C2.66875 20.984 2.66875 23.4763 3.74055 25.3327C4.44269 26.5489 5.4526 27.5588 6.66876 28.2609C8.5252 29.3327 11.0174 29.3327 16.0021 29.3327C20.9867 29.3327 23.479 29.3327 25.3354 28.2609C26.5516 27.5588 27.5615 26.5489 28.2636 25.3327C29.3354 23.4763 29.3354 20.984 29.3354 15.9993C29.3354 11.0147 29.3354 8.52246 28.2636 6.66602C27.5615 5.44986 26.5516 4.43996 25.3354 3.73782C23.479 2.66602 20.9867 2.66602 16.0021 2.66602C11.0174 2.66602 8.5252 2.66602 6.66876 3.73782C5.4526 4.43996 4.44269 5.44986 3.74055 6.66602ZM16.0021 2.66602L15.5205 9.58774C15.2993 12.7666 12.7694 15.2965 9.59048 15.5177L2.66875 15.9993L9.59048 16.4809C12.7694 16.7021 15.2993 19.2321 15.5205 22.4109L16.0021 29.3327L16.4837 22.4109C16.7049 19.2321 19.2348 16.7021 22.4137 16.4809L29.3354 15.9993L22.4137 15.5177C19.2348 15.2965 16.7049 12.7666 16.4837 9.58774L16.0021 2.66602Z" fill="white"/>
</svg>
